<svg id="visual" viewBox="0 0 900 600" width="900" height="600" xmlns="http://www.w3.org/2000/svg" xmlns:xlink="http://www.w3.org/1999/xlink" version="1.1"><g stroke-width="1" stroke-linejoin="bevel"><path d="M420.6 331.1L439.3 287.1L408.7 323.4Z" fill="#132a37" stroke="#132a37"></path><path d="M439.3 287.1L423.1 277.9L408.7 323.4Z" fill="#132733" stroke="#132733"></path><path d="M379.2 283.1L386.6 322.2L408.7 323.4Z" fill="#14303d" stroke="#14303d"></path><path d="M408.7 323.4L386.6 322.2L420.6 331.1Z" fill="#132835" stroke="#132835"></path><path d="M423.1 277.9L379.2 283.1L408.7 323.4Z" fill="#132a37" stroke="#132a37"></path><path d="M428.6 229.9L389.9 257.8L423.1 277.9Z" fill="#11222e" stroke="#11222e"></path><path d="M423.1 277.9L389.9 257.8L379.2 283.1Z" fill="#122531" stroke="#122531"></path><path d="M420.6 331.1L491.3 345.2L439.3 287.1Z" fill="#132b38" stroke="#132b38"></path><path d="M516.8 232.5L428.6 229.9L439.3 287.1Z" fill="#132a37" stroke="#132a37"></path><path d="M439.3 287.1L428.6 229.9L423.1 277.9Z" fill="#132835" stroke="#132835"></path><path d="M491.3 345.2L508.3 333.9L439.3 287.1Z" fill="#142d3a" stroke="#142d3a"></path><path d="M472.7 399.1L504.7 366.2L491.3 345.2Z" fill="#132a37" stroke="#132a37"></path><path d="M491.3 345.2L504.7 366.2L508.3 333.9Z" fill="#142e3b" stroke="#142e3b"></path><path d="M472.7 399.1L491.3 345.2L420.6 331.1Z" fill="#11222e" stroke="#11222e"></path><path d="M379.2 283.1L336.6 346.4L386.6 322.2Z" fill="#142d3a" stroke="#142d3a"></path><path d="M386.6 322.2L403.9 411.1L420.6 331.1Z" fill="#142d3a" stroke="#142d3a"></path><path d="M306.2 286.2L336.6 346.4L379.2 283.1Z" fill="#11212c" stroke="#11212c"></path><path d="M454.1 409.2L472.7 399.1L420.6 331.1Z" fill="#132b38" stroke="#132b38"></path><path d="M403.9 411.1L454.1 409.2L420.6 331.1Z" fill="#142e3b" stroke="#142e3b"></path><path d="M336.6 346.4L403.9 411.1L386.6 322.2Z" fill="#132733" stroke="#132733"></path><path d="M428.6 229.9L387.9 208.9L389.9 257.8Z" fill="#11222e" stroke="#11222e"></path><path d="M328.2 221.5L306.2 286.2L379.2 283.1Z" fill="#132b38" stroke="#132b38"></path><path d="M508.3 333.9L516.8 232.5L439.3 287.1Z" fill="#14303d" stroke="#14303d"></path><path d="M428.6 229.9L434.1 155.8L387.9 208.9Z" fill="#142d3a" stroke="#142d3a"></path><path d="M456.9 423.7L478.4 413.7L454.1 409.2Z" fill="#122430" stroke="#122430"></path><path d="M454.1 409.2L478.4 413.7L472.7 399.1Z" fill="#132733" stroke="#132733"></path><path d="M472.7 399.1L517.1 398.1L504.7 366.2Z" fill="#132b38" stroke="#132b38"></path><path d="M421.9 447.2L456.9 423.7L454.1 409.2Z" fill="#142d3a" stroke="#142d3a"></path><path d="M328.2 221.5L379.2 283.1L389.9 257.8Z" fill="#132733" stroke="#132733"></path><path d="M558.4 262.1L529.8 233.8L516.8 232.5Z" fill="#132b38" stroke="#132b38"></path><path d="M516.8 232.5L475.4 174.5L428.6 229.9Z" fill="#132733" stroke="#132733"></path><path d="M558.4 262.1L516.8 232.5L508.3 333.9Z" fill="#132b38" stroke="#132b38"></path><path d="M478.4 413.7L517.1 398.1L472.7 399.1Z" fill="#122430" stroke="#122430"></path><path d="M504.7 366.2L556.7 310.9L508.3 333.9Z" fill="#132733" stroke="#132733"></path><path d="M506.1 460.4L517.1 398.1L478.4 413.7Z" fill="#142d3a" stroke="#142d3a"></path><path d="M350.6 434.5L405.9 434.4L403.9 411.1Z" fill="#11222e" stroke="#11222e"></path><path d="M403.9 411.1L405.9 434.4L454.1 409.2Z" fill="#132733" stroke="#132733"></path><path d="M517.1 398.1L556.7 310.9L504.7 366.2Z" fill="#142d3a" stroke="#142d3a"></path><path d="M387.9 208.9L328.2 221.5L389.9 257.8Z" fill="#142e3b" stroke="#142e3b"></path><path d="M529.8 233.8L516.4 205.9L516.8 232.5Z" fill="#132835" stroke="#132835"></path><path d="M556.7 310.9L558.4 262.1L508.3 333.9Z" fill="#132b38" stroke="#132b38"></path><path d="M562.8 210.9L521.7 185.6L516.4 205.9Z" fill="#14303d" stroke="#14303d"></path><path d="M405.9 434.4L421.9 447.2L454.1 409.2Z" fill="#132a37" stroke="#132a37"></path><path d="M456.9 423.7L506.1 460.4L478.4 413.7Z" fill="#122430" stroke="#122430"></path><path d="M241.5 249.6L287.8 298.9L306.2 286.2Z" fill="#132a37" stroke="#132a37"></path><path d="M306.2 286.2L287.8 298.9L336.6 346.4Z" fill="#122430" stroke="#122430"></path><path d="M336.6 346.4L350.6 434.5L403.9 411.1Z" fill="#122531" stroke="#122531"></path><path d="M516.4 205.9L475.4 174.5L516.8 232.5Z" fill="#122430" stroke="#122430"></path><path d="M387.9 208.9L339.2 172.8L328.2 221.5Z" fill="#142d3a" stroke="#142d3a"></path><path d="M516.4 205.9L484.3 174.8L475.4 174.5Z" fill="#132b38" stroke="#132b38"></path><path d="M249.8 416.2L350.6 434.5L336.6 346.4Z" fill="#122430" stroke="#122430"></path><path d="M405.9 434.4L425.6 458.8L421.9 447.2Z" fill="#132b38" stroke="#132b38"></path><path d="M373.9 492.5L425.6 458.8L405.9 434.4Z" fill="#142e3b" stroke="#142e3b"></path><path d="M421.9 447.2L425.6 458.8L456.9 423.7Z" fill="#132835" stroke="#132835"></path><path d="M443.3 145.2L434.1 155.8L475.4 174.5Z" fill="#11222e" stroke="#11222e"></path><path d="M475.4 174.5L434.1 155.8L428.6 229.9Z" fill="#132b38" stroke="#132b38"></path><path d="M562.8 210.9L516.4 205.9L529.8 233.8Z" fill="#142d3a" stroke="#142d3a"></path><path d="M516.4 205.9L521.7 185.6L484.3 174.8Z" fill="#122531" stroke="#122531"></path><path d="M456.3 134.3L443.3 145.2L475.4 174.5Z" fill="#11212c" stroke="#11212c"></path><path d="M558.4 262.1L563.1 233.5L529.8 233.8Z" fill="#132835" stroke="#132835"></path><path d="M599.4 242.6L563.1 233.5L558.4 262.1Z" fill="#132835" stroke="#132835"></path><path d="M348.6 130.6L339.2 172.8L387.9 208.9Z" fill="#122430" stroke="#122430"></path><path d="M328.2 221.5L241.5 249.6L306.2 286.2Z" fill="#132835" stroke="#132835"></path><path d="M456.3 134.3L475.4 174.5L487.4 141.2Z" fill="#132733" stroke="#132733"></path><path d="M348.6 130.6L338.9 145.6L339.2 172.8Z" fill="#14303d" stroke="#14303d"></path><path d="M563.1 233.5L562.8 210.9L529.8 233.8Z" fill="#142e3b" stroke="#142e3b"></path><path d="M425.6 458.8L506.1 460.4L456.9 423.7Z" fill="#132a37" stroke="#132a37"></path><path d="M617.8 363.2L617.5 355.4L556.7 310.9Z" fill="#122531" stroke="#122531"></path><path d="M318.9 156.3L314.6 174.5L339.2 172.8Z" fill="#132835" stroke="#132835"></path><path d="M339.2 172.8L314.6 174.5L328.2 221.5Z" fill="#132b38" stroke="#132b38"></path><path d="M487.4 141.2L475.4 174.5L484.3 174.8Z" fill="#122430" stroke="#122430"></path><path d="M348.6 130.6L387.9 208.9L434.1 155.8Z" fill="#122531" stroke="#122531"></path><path d="M487.4 141.2L484.3 174.8L521.7 185.6Z" fill="#132733" stroke="#132733"></path><path d="M314.6 174.5L294.6 191.8L328.2 221.5Z" fill="#122531" stroke="#122531"></path><path d="M555.7 174.3L487.4 141.2L521.7 185.6Z" fill="#14303d" stroke="#14303d"></path><path d="M562.8 210.9L552.7 179.8L521.7 185.6Z" fill="#132733" stroke="#132733"></path><path d="M307.2 474.4L346.3 468.5L350.6 434.5Z" fill="#11222e" stroke="#11222e"></path><path d="M350.6 434.5L346.3 468.5L405.9 434.4Z" fill="#122430" stroke="#122430"></path><path d="M425.6 458.8L484.3 514.4L506.1 460.4Z" fill="#132835" stroke="#132835"></path><path d="M628.5 291.1L558.4 262.1L556.7 310.9Z" fill="#122531" stroke="#122531"></path><path d="M628.5 291.1L599.4 242.6L558.4 262.1Z" fill="#142e3b" stroke="#142e3b"></path><path d="M563.1 233.5L599.4 242.6L562.8 210.9Z" fill="#132a37" stroke="#132a37"></path><path d="M562.8 210.9L555.7 174.3L552.7 179.8Z" fill="#14303d" stroke="#14303d"></path><path d="M348.6 130.6L434.1 155.8L409.7 74.5Z" fill="#132b38" stroke="#132b38"></path><path d="M314.6 174.5L318.9 156.3L294.6 191.8Z" fill="#14303d" stroke="#14303d"></path><path d="M591.2 160.5L555.7 174.3L562.8 210.9Z" fill="#142d3a" stroke="#142d3a"></path><path d="M552.7 179.8L555.7 174.3L521.7 185.6Z" fill="#132b38" stroke="#132b38"></path><path d="M338.9 145.6L318.9 156.3L339.2 172.8Z" fill="#132835" stroke="#132835"></path><path d="M346.3 468.5L373.9 492.5L405.9 434.4Z" fill="#142d3a" stroke="#142d3a"></path><path d="M409.7 74.5L434.1 155.8L443.3 145.2Z" fill="#122430" stroke="#122430"></path><path d="M338.9 145.6L316.2 113.6L318.9 156.3Z" fill="#142d3a" stroke="#142d3a"></path><path d="M243.8 160.8L241.5 249.6L294.6 191.8Z" fill="#122531" stroke="#122531"></path><path d="M294.6 191.8L241.5 249.6L328.2 221.5Z" fill="#122531" stroke="#122531"></path><path d="M287.8 298.9L243.8 385.4L336.6 346.4Z" fill="#14303d" stroke="#14303d"></path><path d="M617.8 363.2L556.7 310.9L517.1 398.1Z" fill="#142d3a" stroke="#142d3a"></path><path d="M487.4 141.2L462.3 114.6L456.3 134.3Z" fill="#122430" stroke="#122430"></path><path d="M456.3 134.3L447.1 99.6L443.3 145.2Z" fill="#142d3a" stroke="#142d3a"></path><path d="M447.1 99.6L462.3 114.6L493.7 60.2Z" fill="#132a37" stroke="#132a37"></path><path d="M629.2 372.2L617.8 363.2L604.1 455.5Z" fill="#132b38" stroke="#132b38"></path><path d="M193.2 353.9L243.8 385.4L287.8 298.9Z" fill="#122430" stroke="#122430"></path><path d="M346.3 468.5L307.2 474.4L373.9 492.5Z" fill="#142e3b" stroke="#142e3b"></path><path d="M629.5 289.9L628.5 291.1L673.9 331.9Z" fill="#132a37" stroke="#132a37"></path><path d="M617.5 355.4L628.5 291.1L556.7 310.9Z" fill="#132b38" stroke="#132b38"></path><path d="M668.9 336.4L628.5 291.1L617.5 355.4Z" fill="#11222e" stroke="#11222e"></path><path d="M628.5 291.1L629.5 289.9L599.4 242.6Z" fill="#132b38" stroke="#132b38"></path><path d="M249.8 416.2L307.2 474.4L350.6 434.5Z" fill="#122430" stroke="#122430"></path><path d="M629.5 289.9L623.4 243.8L599.4 242.6Z" fill="#132733" stroke="#132733"></path><path d="M599.4 242.6L591.2 160.5L562.8 210.9Z" fill="#132b38" stroke="#132b38"></path><path d="M243.8 385.4L249.8 416.2L336.6 346.4Z" fill="#142d3a" stroke="#142d3a"></path><path d="M282.6 544.7L386.7 512.5L373.9 492.5Z" fill="#132835" stroke="#132835"></path><path d="M373.9 492.5L386.7 512.5L425.6 458.8Z" fill="#14303d" stroke="#14303d"></path><path d="M450.9 54.2L447.1 99.6L493.7 60.2Z" fill="#142e3b" stroke="#142e3b"></path><path d="M462.3 114.6L447.1 99.6L456.3 134.3Z" fill="#132b38" stroke="#132b38"></path><path d="M604.1 455.5L617.8 363.2L517.1 398.1Z" fill="#142d3a" stroke="#142d3a"></path><path d="M617.8 363.2L629.2 372.2L617.5 355.4Z" fill="#11212c" stroke="#11212c"></path><path d="M446.1 537.7L484.3 514.4L425.6 458.8Z" fill="#142d3a" stroke="#142d3a"></path><path d="M506.1 460.4L604.1 455.5L517.1 398.1Z" fill="#142d3a" stroke="#142d3a"></path><path d="M193.2 353.9L227.5 394.2L243.8 385.4Z" fill="#132b38" stroke="#132b38"></path><path d="M243.8 385.4L227.5 394.2L249.8 416.2Z" fill="#11212c" stroke="#11212c"></path><path d="M249.8 416.2L257.2 466.7L307.2 474.4Z" fill="#132a37" stroke="#132a37"></path><path d="M655.2 214.6L591.2 160.5L599.4 242.6Z" fill="#132b38" stroke="#132b38"></path><path d="M585.8 102.3L493.7 60.2L487.4 141.2Z" fill="#142d3a" stroke="#142d3a"></path><path d="M348.6 130.6L316.2 113.6L338.9 145.6Z" fill="#132a37" stroke="#132a37"></path><path d="M318.9 156.3L243.8 160.8L294.6 191.8Z" fill="#11222e" stroke="#11222e"></path><path d="M355.9 69.5L316.2 113.6L348.6 130.6Z" fill="#142d3a" stroke="#142d3a"></path><path d="M532.4 540.8L604.1 455.5L506.1 460.4Z" fill="#132733" stroke="#132733"></path><path d="M386.7 512.5L446.1 537.7L425.6 458.8Z" fill="#11212c" stroke="#11212c"></path><path d="M652.2 465.7L621.8 452.5L636.8 506.4Z" fill="#132733" stroke="#132733"></path><path d="M212.5 461.8L257.2 466.7L249.8 416.2Z" fill="#132a37" stroke="#132a37"></path><path d="M282.6 544.7L392.7 538.8L386.7 512.5Z" fill="#11212c" stroke="#11212c"></path><path d="M386.7 512.5L392.7 538.8L446.1 537.7Z" fill="#132835" stroke="#132835"></path><path d="M282.6 544.7L373.9 492.5L307.2 474.4Z" fill="#132733" stroke="#132733"></path><path d="M450.9 54.2L409.7 74.5L447.1 99.6Z" fill="#122531" stroke="#122531"></path><path d="M447.1 99.6L409.7 74.5L443.3 145.2Z" fill="#14303d" stroke="#14303d"></path><path d="M316.2 113.6L243.8 160.8L318.9 156.3Z" fill="#14303d" stroke="#14303d"></path><path d="M171.5 313.9L193.2 353.9L287.8 298.9Z" fill="#14303d" stroke="#14303d"></path><path d="M171.5 313.9L287.8 298.9L241.5 249.6Z" fill="#132835" stroke="#132835"></path><path d="M212.5 461.8L257.2 504.8L257.2 466.7Z" fill="#132733" stroke="#132733"></path><path d="M532.4 540.8L506.1 460.4L484.3 514.4Z" fill="#142d3a" stroke="#142d3a"></path><path d="M604.1 455.5L621.8 452.5L629.2 372.2Z" fill="#132b38" stroke="#132b38"></path><path d="M629.2 372.2L668.9 336.4L617.5 355.4Z" fill="#132733" stroke="#132733"></path><path d="M675.2 227.1L655.2 214.6L623.4 243.8Z" fill="#132733" stroke="#132733"></path><path d="M623.4 243.8L655.2 214.6L599.4 242.6Z" fill="#142d3a" stroke="#142d3a"></path><path d="M669.2 364.5L668.9 336.4L629.2 372.2Z" fill="#132835" stroke="#132835"></path><path d="M675.2 227.1L623.4 243.8L629.5 289.9Z" fill="#11222e" stroke="#11222e"></path><path d="M664.5 400.5L663.4 380.2L629.2 372.2Z" fill="#142d3a" stroke="#142d3a"></path><path d="M680.2 329.8L673.9 331.9L668.9 336.4Z" fill="#142d3a" stroke="#142d3a"></path><path d="M668.9 336.4L673.9 331.9L628.5 291.1Z" fill="#132733" stroke="#132733"></path><path d="M663.4 380.2L667.9 368.1L629.2 372.2Z" fill="#142e3b" stroke="#142e3b"></path><path d="M216.1 174.8L188.1 240.1L241.5 249.6Z" fill="#11222e" stroke="#11222e"></path><path d="M667.9 368.1L669.2 364.5L629.2 372.2Z" fill="#122430" stroke="#122430"></path><path d="M409.7 74.5L355.9 69.5L348.6 130.6Z" fill="#132b38" stroke="#132b38"></path><path d="M191.2 111.2L216.1 174.8L243.8 160.8Z" fill="#132a37" stroke="#132a37"></path><path d="M186.1 174.6L216.1 174.8L191.2 111.2Z" fill="#132a37" stroke="#132a37"></path><path d="M243.8 160.8L216.1 174.8L241.5 249.6Z" fill="#142d3a" stroke="#142d3a"></path><path d="M669.2 364.5L680.2 329.8L668.9 336.4Z" fill="#132733" stroke="#132733"></path><path d="M673.9 331.9L684.2 317.4L629.5 289.9Z" fill="#132b38" stroke="#132b38"></path><path d="M758.3 336.4L724.9 323.2L669.2 364.5Z" fill="#132a37" stroke="#132a37"></path><path d="M724.9 323.2L684.2 317.4L680.2 329.8Z" fill="#132835" stroke="#132835"></path><path d="M663.4 380.2L664.5 400.5L667.9 368.1Z" fill="#142d3a" stroke="#142d3a"></path><path d="M621.8 452.5L664.5 400.5L629.2 372.2Z" fill="#132835" stroke="#132835"></path><path d="M493.7 60.2L462.3 114.6L487.4 141.2Z" fill="#11222e" stroke="#11222e"></path><path d="M409.7 74.5L375.2 0L355.9 69.5Z" fill="#132835" stroke="#132835"></path><path d="M525.8 567.8L484.3 514.4L446.1 537.7Z" fill="#11222e" stroke="#11222e"></path><path d="M525.8 567.8L532.4 540.8L484.3 514.4Z" fill="#142e3b" stroke="#142e3b"></path><path d="M176.7 251.1L171.5 313.9L241.5 249.6Z" fill="#11212c" stroke="#11212c"></path><path d="M585.8 102.3L555.7 174.3L591.2 160.5Z" fill="#132a37" stroke="#132a37"></path><path d="M585.8 102.3L487.4 141.2L555.7 174.3Z" fill="#132835" stroke="#132835"></path><path d="M175.8 237.6L176.7 251.1L188.1 240.1Z" fill="#132733" stroke="#132733"></path><path d="M188.1 240.1L176.7 251.1L241.5 249.6Z" fill="#132733" stroke="#132733"></path><path d="M690.8 310.1L684.2 317.4L724.9 323.2Z" fill="#122531" stroke="#122531"></path><path d="M680.2 329.8L684.2 317.4L673.9 331.9Z" fill="#132b38" stroke="#132b38"></path><path d="M647.5 131.5L585.8 102.3L591.2 160.5Z" fill="#11222e" stroke="#11222e"></path><path d="M212.5 461.8L249.8 416.2L227.5 394.2Z" fill="#142e3b" stroke="#142e3b"></path><path d="M257.2 466.7L257.2 504.8L307.2 474.4Z" fill="#142e3b" stroke="#142e3b"></path><path d="M212.5 461.8L227.5 394.2L148.5 443.5Z" fill="#132835" stroke="#132835"></path><path d="M421.9 0L434.3 47.5L478.1 -2.7Z" fill="#122430" stroke="#122430"></path><path d="M450.9 54.2L434.3 47.5L409.7 74.5Z" fill="#132733" stroke="#132733"></path><path d="M694.8 234.6L675.2 227.1L629.5 289.9Z" fill="#11212c" stroke="#11212c"></path><path d="M655.2 214.6L654.5 158.6L591.2 160.5Z" fill="#132733" stroke="#132733"></path><path d="M186.1 174.6L175.8 237.6L188.1 240.1Z" fill="#122430" stroke="#122430"></path><path d="M176.7 251.1L157.1 266.9L171.5 313.9Z" fill="#122531" stroke="#122531"></path><path d="M724.9 323.2L680.2 329.8L669.2 364.5Z" fill="#142e3b" stroke="#142e3b"></path><path d="M684.2 317.4L690.8 310.1L629.5 289.9Z" fill="#122430" stroke="#122430"></path><path d="M148.5 443.5L227.5 394.2L193.2 353.9Z" fill="#122430" stroke="#122430"></path><path d="M712.3 157.5L654.5 158.6L655.2 214.6Z" fill="#132b38" stroke="#132b38"></path><path d="M175.8 237.6L157.1 266.9L176.7 251.1Z" fill="#132835" stroke="#132835"></path><path d="M171.5 313.9L138.4 348.4L193.2 353.9Z" fill="#132a37" stroke="#132a37"></path><path d="M636.8 506.4L621.8 452.5L604.1 455.5Z" fill="#142e3b" stroke="#142e3b"></path><path d="M621.8 452.5L652.2 465.7L664.5 400.5Z" fill="#14303d" stroke="#14303d"></path><path d="M758.3 336.4L669.2 364.5L772.9 418.5Z" fill="#132b38" stroke="#132b38"></path><path d="M240.5 70.5L243.8 160.8L316.2 113.6Z" fill="#132835" stroke="#132835"></path><path d="M216.1 174.8L186.1 174.6L188.1 240.1Z" fill="#142e3b" stroke="#142e3b"></path><path d="M175.8 237.6L133.7 245.8L157.1 266.9Z" fill="#122531" stroke="#122531"></path><path d="M241.2 523.5L282.6 544.7L257.2 504.8Z" fill="#132b38" stroke="#132b38"></path><path d="M257.2 504.8L282.6 544.7L307.2 474.4Z" fill="#132835" stroke="#132835"></path><path d="M469.9 600L525.8 567.8L446.1 537.7Z" fill="#122430" stroke="#122430"></path><path d="M690.8 310.1L694.8 234.6L629.5 289.9Z" fill="#11222e" stroke="#11222e"></path><path d="M675.2 227.1L712.3 157.5L655.2 214.6Z" fill="#122531" stroke="#122531"></path><path d="M466.1 600L446.1 537.7L392.7 538.8Z" fill="#142e3b" stroke="#142e3b"></path><path d="M609.4 536.5L636.8 506.4L604.1 455.5Z" fill="#132b38" stroke="#132b38"></path><path d="M718.3 131.8L647.5 131.5L654.5 158.6Z" fill="#132733" stroke="#132733"></path><path d="M654.5 158.6L647.5 131.5L591.2 160.5Z" fill="#11222e" stroke="#11222e"></path><path d="M113.7 279.9L144.5 306.1L157.1 266.9Z" fill="#132a37" stroke="#132a37"></path><path d="M157.1 266.9L144.5 306.1L171.5 313.9Z" fill="#122531" stroke="#122531"></path><path d="M212.5 461.8L241.2 523.5L257.2 504.8Z" fill="#132b38" stroke="#132b38"></path><path d="M609.4 536.5L604.1 455.5L532.4 540.8Z" fill="#142e3b" stroke="#142e3b"></path><path d="M144.5 306.1L138.4 348.4L171.5 313.9Z" fill="#14303d" stroke="#14303d"></path><path d="M183.8 497.7L234.8 534.5L241.2 523.5Z" fill="#11212c" stroke="#11212c"></path><path d="M636.8 506.4L659.4 485.4L652.2 465.7Z" fill="#132a37" stroke="#132a37"></path><path d="M740.5 500.8L772.9 418.5L664.5 400.5Z" fill="#132835" stroke="#132835"></path><path d="M566.7 600L609.4 536.5L532.4 540.8Z" fill="#11222e" stroke="#11222e"></path><path d="M636.8 506.4L714.9 520.7L659.4 485.4Z" fill="#132835" stroke="#132835"></path><path d="M327.6 600L466.1 600L392.7 538.8Z" fill="#11212c" stroke="#11212c"></path><path d="M525.8 567.8L566.7 600L532.4 540.8Z" fill="#132733" stroke="#132733"></path><path d="M138.4 348.4L136.8 359.1L193.2 353.9Z" fill="#132b38" stroke="#132b38"></path><path d="M466.1 600L469.9 600L446.1 537.7Z" fill="#14303d" stroke="#14303d"></path><path d="M241.2 523.5L234.8 534.5L282.6 544.7Z" fill="#11212c" stroke="#11212c"></path><path d="M282.6 544.7L327.6 600L392.7 538.8Z" fill="#132b38" stroke="#132b38"></path><path d="M183.8 497.7L241.2 523.5L212.5 461.8Z" fill="#132835" stroke="#132835"></path><path d="M669.2 364.5L667.9 368.1L772.9 418.5Z" fill="#132a37" stroke="#132a37"></path><path d="M690.8 310.1L765.9 285.8L694.8 234.6Z" fill="#132835" stroke="#132835"></path><path d="M108.4 214.5L133.7 245.8L175.8 237.6Z" fill="#132a37" stroke="#132a37"></path><path d="M144.5 306.1L91.5 359.4L138.4 348.4Z" fill="#11212c" stroke="#11212c"></path><path d="M138.4 348.4L91.5 359.4L136.8 359.1Z" fill="#132b38" stroke="#132b38"></path><path d="M307.6 30.2L316.2 113.6L355.9 69.5Z" fill="#14303d" stroke="#14303d"></path><path d="M307.6 30.2L240.5 70.5L316.2 113.6Z" fill="#132b38" stroke="#132b38"></path><path d="M186.1 174.6L108.4 214.5L175.8 237.6Z" fill="#142e3b" stroke="#142e3b"></path><path d="M375.2 0L307.6 30.2L355.9 69.5Z" fill="#122531" stroke="#122531"></path><path d="M585.8 102.3L520.4 16.3L493.7 60.2Z" fill="#122430" stroke="#122430"></path><path d="M493.7 60.2L478.1 -2.7L450.9 54.2Z" fill="#14303d" stroke="#14303d"></path><path d="M434.3 47.5L405.7 0L409.7 74.5Z" fill="#122430" stroke="#122430"></path><path d="M573.2 0L520.4 16.3L585.8 102.3Z" fill="#132835" stroke="#132835"></path><path d="M469.9 600L520.3 600L525.8 567.8Z" fill="#14303d" stroke="#14303d"></path><path d="M520.3 600L525.3 598.7L525.8 567.8Z" fill="#122430" stroke="#122430"></path><path d="M240.5 70.5L191.2 111.2L243.8 160.8Z" fill="#132733" stroke="#132733"></path><path d="M478.1 -2.7L434.3 47.5L450.9 54.2Z" fill="#142d3a" stroke="#142d3a"></path><path d="M421.9 0L413.3 0L434.3 47.5Z" fill="#122430" stroke="#122430"></path><path d="M151.1 449.4L183.8 497.7L212.5 461.8Z" fill="#14303d" stroke="#14303d"></path><path d="M300.2 600L327.6 600L282.6 544.7Z" fill="#14303d" stroke="#14303d"></path><path d="M413.3 0L405.7 0L434.3 47.5Z" fill="#11222e" stroke="#11222e"></path><path d="M136.8 359.1L148.5 443.5L193.2 353.9Z" fill="#142d3a" stroke="#142d3a"></path><path d="M148.5 443.5L151.1 449.4L212.5 461.8Z" fill="#132733" stroke="#132733"></path><path d="M248.6 29.3L227.1 70.2L240.5 70.5Z" fill="#142d3a" stroke="#142d3a"></path><path d="M240.5 70.5L201.8 86.2L191.2 111.2Z" fill="#132733" stroke="#132733"></path><path d="M405.7 0L375.2 0L409.7 74.5Z" fill="#132733" stroke="#132733"></path><path d="M108.4 214.5L113.7 279.9L133.7 245.8Z" fill="#132b38" stroke="#132b38"></path><path d="M133.7 245.8L113.7 279.9L157.1 266.9Z" fill="#132733" stroke="#132733"></path><path d="M136.8 359.1L90.7 401.4L148.5 443.5Z" fill="#142e3b" stroke="#142e3b"></path><path d="M421.9 0L478.1 -2.7L413.3 0Z" fill="#142e3b" stroke="#142e3b"></path><path d="M413.3 0L569.1 -15.8L405.7 0Z" fill="#14303d" stroke="#14303d"></path><path d="M405.7 0L569.1 -15.8L375.2 0Z" fill="#142e3b" stroke="#142e3b"></path><path d="M497.4 0L478.1 -2.7L493.7 60.2Z" fill="#11212c" stroke="#11212c"></path><path d="M520.4 16.3L497.4 0L493.7 60.2Z" fill="#132835" stroke="#132835"></path><path d="M227.1 70.2L201.8 86.2L240.5 70.5Z" fill="#122430" stroke="#122430"></path><path d="M118.5 138.8L108.4 214.5L186.1 174.6Z" fill="#122531" stroke="#122531"></path><path d="M535.1 641.8L552.7 599.7L525.3 598.7Z" fill="#142d3a" stroke="#142d3a"></path><path d="M525.3 598.7L552.7 599.7L525.8 567.8Z" fill="#122531" stroke="#122531"></path><path d="M609.4 536.5L649.5 583.7L636.8 506.4Z" fill="#11222e" stroke="#11222e"></path><path d="M283.5 600L282.6 544.7L260.8 600Z" fill="#11222e" stroke="#11222e"></path><path d="M283.5 600L300.2 600L282.6 544.7Z" fill="#142e3b" stroke="#142e3b"></path><path d="M758.2 226.9L712.3 157.5L694.8 234.6Z" fill="#11222e" stroke="#11222e"></path><path d="M694.8 234.6L712.3 157.5L675.2 227.1Z" fill="#14303d" stroke="#14303d"></path><path d="M647.5 131.5L629.2 48.2L585.8 102.3Z" fill="#122531" stroke="#122531"></path><path d="M535.1 641.8L566.7 600L552.7 599.7Z" fill="#132835" stroke="#132835"></path><path d="M552.7 599.7L566.7 600L525.8 567.8Z" fill="#122430" stroke="#122430"></path><path d="M260.8 600L282.6 544.7L234.8 534.5Z" fill="#14303d" stroke="#14303d"></path><path d="M705.9 72.2L629.2 48.2L647.5 131.5Z" fill="#14303d" stroke="#14303d"></path><path d="M520.4 16.3L569.1 -15.8L497.4 0Z" fill="#11212c" stroke="#11212c"></path><path d="M307.6 30.2L248.6 29.3L240.5 70.5Z" fill="#132835" stroke="#132835"></path><path d="M227.1 70.2L209.2 58.3L201.8 86.2Z" fill="#142e3b" stroke="#142e3b"></path><path d="M274.6 0L248.6 29.3L307.6 30.2Z" fill="#11212c" stroke="#11212c"></path><path d="M248.6 29.3L209.2 58.3L227.1 70.2Z" fill="#14303d" stroke="#14303d"></path><path d="M201.8 86.2L151.8 97.3L191.2 111.2Z" fill="#122430" stroke="#122430"></path><path d="M147.8 102.5L186.1 174.6L191.2 111.2Z" fill="#11212c" stroke="#11212c"></path><path d="M772.9 418.5L667.9 368.1L664.5 400.5Z" fill="#132835" stroke="#132835"></path><path d="M724.9 323.2L765.9 285.8L690.8 310.1Z" fill="#142e3b" stroke="#142e3b"></path><path d="M466.1 600L464.3 639.8L469.9 600Z" fill="#132835" stroke="#132835"></path><path d="M469.9 600L464.3 639.8L520.3 600Z" fill="#142d3a" stroke="#142d3a"></path><path d="M520.3 600L535.1 641.8L525.3 598.7Z" fill="#142e3b" stroke="#142e3b"></path><path d="M327.6 600L464.3 639.8L466.1 600Z" fill="#142e3b" stroke="#142e3b"></path><path d="M318.9 629.8L464.3 639.8L327.6 600Z" fill="#11222e" stroke="#11222e"></path><path d="M318.9 629.8L327.6 600L300.2 600Z" fill="#11222e" stroke="#11222e"></path><path d="M222.8 605.8L260.8 600L234.8 534.5Z" fill="#122430" stroke="#122430"></path><path d="M283.5 600L318.9 629.8L300.2 600Z" fill="#132835" stroke="#132835"></path><path d="M758.3 336.4L765.9 285.8L724.9 323.2Z" fill="#132835" stroke="#132835"></path><path d="M66.7 366.2L91.5 359.4L113.7 279.9Z" fill="#11222e" stroke="#11222e"></path><path d="M113.7 279.9L91.5 359.4L144.5 306.1Z" fill="#132b38" stroke="#132b38"></path><path d="M108.7 506.5L126.7 513.7L151.1 449.4Z" fill="#132b38" stroke="#132b38"></path><path d="M260.8 600L318.9 629.8L283.5 600Z" fill="#142e3b" stroke="#142e3b"></path><path d="M712.3 157.5L718.3 131.8L654.5 158.6Z" fill="#122430" stroke="#122430"></path><path d="M726.9 118.5L718.3 131.8L775.3 134.3Z" fill="#142e3b" stroke="#142e3b"></path><path d="M629.2 48.2L573.2 0L585.8 102.3Z" fill="#132b38" stroke="#132b38"></path><path d="M497.4 0L569.1 -15.8L478.1 -2.7Z" fill="#122430" stroke="#122430"></path><path d="M765.9 285.8L758.2 226.9L694.8 234.6Z" fill="#14303d" stroke="#14303d"></path><path d="M248.6 29.3L211.8 0L209.2 58.3Z" fill="#132733" stroke="#132733"></path><path d="M375.2 0L274.6 0L307.6 30.2Z" fill="#11212c" stroke="#11212c"></path><path d="M134.5 -25.8L274.6 0L375.2 0Z" fill="#11212c" stroke="#11212c"></path><path d="M535.1 641.8L611.8 600L566.7 600Z" fill="#122531" stroke="#122531"></path><path d="M566.7 600L611.8 600L609.4 536.5Z" fill="#132b38" stroke="#132b38"></path><path d="M740.5 500.8L664.5 400.5L652.2 465.7Z" fill="#122531" stroke="#122531"></path><path d="M159.7 42.2L201.8 86.2L209.2 58.3Z" fill="#132835" stroke="#132835"></path><path d="M159.7 42.2L151.8 97.3L201.8 86.2Z" fill="#132835" stroke="#132835"></path><path d="M151.8 97.3L147.8 102.5L191.2 111.2Z" fill="#142e3b" stroke="#142e3b"></path><path d="M91.5 359.4L90.7 401.4L136.8 359.1Z" fill="#142e3b" stroke="#142e3b"></path><path d="M151.1 449.4L126.7 513.7L183.8 497.7Z" fill="#122531" stroke="#122531"></path><path d="M188.7 600L222.8 605.8L234.8 534.5Z" fill="#11212c" stroke="#11212c"></path><path d="M464.3 639.8L535.1 641.8L520.3 600Z" fill="#142d3a" stroke="#142d3a"></path><path d="M60.4 161.8L118.5 138.8L98.1 83.5Z" fill="#142e3b" stroke="#142e3b"></path><path d="M147.8 102.5L118.5 138.8L186.1 174.6Z" fill="#132733" stroke="#132733"></path><path d="M612.1 0L569.1 -15.8L573.2 0Z" fill="#122430" stroke="#122430"></path><path d="M573.2 0L569.1 -15.8L520.4 16.3Z" fill="#11212c" stroke="#11212c"></path><path d="M478.1 -2.7L569.1 -15.8L413.3 0Z" fill="#132733" stroke="#132733"></path><path d="M612.1 0L573.2 0L629.2 48.2Z" fill="#142d3a" stroke="#142d3a"></path><path d="M631.4 600L649.5 583.7L611.8 600Z" fill="#132733" stroke="#132733"></path><path d="M611.8 600L649.5 583.7L609.4 536.5Z" fill="#132a37" stroke="#132a37"></path><path d="M775.3 134.3L718.3 131.8L712.3 157.5Z" fill="#11212c" stroke="#11212c"></path><path d="M718.3 131.8L715.9 92.6L647.5 131.5Z" fill="#122430" stroke="#122430"></path><path d="M535.1 641.8L631.4 600L611.8 600Z" fill="#14303d" stroke="#14303d"></path><path d="M707.8 567.7L714.9 520.7L636.8 506.4Z" fill="#142d3a" stroke="#142d3a"></path><path d="M620.2 1.3L612.1 0L629.2 48.2Z" fill="#11222e" stroke="#11222e"></path><path d="M726.9 118.5L715.9 92.6L718.3 131.8Z" fill="#122430" stroke="#122430"></path><path d="M153.7 565.8L234.8 534.5L183.8 497.7Z" fill="#142e3b" stroke="#142e3b"></path><path d="M260.8 600L222.8 605.8L318.9 629.8Z" fill="#142d3a" stroke="#142d3a"></path><path d="M118.5 138.8L87.7 182.5L108.4 214.5Z" fill="#142e3b" stroke="#142e3b"></path><path d="M108.4 214.5L60.7 202.6L113.7 279.9Z" fill="#132a37" stroke="#132a37"></path><path d="M91.5 359.4L66.7 366.2L90.7 401.4Z" fill="#142d3a" stroke="#142d3a"></path><path d="M626.5 0L620.2 1.3L629.2 48.2Z" fill="#11212c" stroke="#11212c"></path><path d="M612.1 0L626.5 0L569.1 -15.8Z" fill="#122531" stroke="#122531"></path><path d="M740.5 500.8L652.2 465.7L659.4 485.4Z" fill="#132733" stroke="#132733"></path><path d="M758.3 336.4L799.6 339.2L765.9 285.8Z" fill="#132835" stroke="#132835"></path><path d="M108.7 506.5L151.1 449.4L148.5 443.5Z" fill="#11222e" stroke="#11222e"></path><path d="M715.9 92.6L705.9 72.2L647.5 131.5Z" fill="#142e3b" stroke="#142e3b"></path><path d="M47.1 374.2L66.7 366.2L0 348.2Z" fill="#11212c" stroke="#11212c"></path><path d="M90.7 401.4L108.7 506.5L148.5 443.5Z" fill="#11222e" stroke="#11222e"></path><path d="M652.8 0L626.5 0L629.2 48.2Z" fill="#122531" stroke="#122531"></path><path d="M620.2 1.3L626.5 0L612.1 0Z" fill="#14303d" stroke="#14303d"></path><path d="M787.6 515.5L740.5 500.8L714.9 520.7Z" fill="#14303d" stroke="#14303d"></path><path d="M714.9 520.7L740.5 500.8L659.4 485.4Z" fill="#132b38" stroke="#132b38"></path><path d="M792.5 170.8L771.6 175.6L758.2 226.9Z" fill="#132a37" stroke="#132a37"></path><path d="M758.2 226.9L771.6 175.6L712.3 157.5Z" fill="#132733" stroke="#132733"></path><path d="M726.9 118.5L780.6 125.2L715.9 92.6Z" fill="#122531" stroke="#122531"></path><path d="M784.6 44.5L721.5 31.2L705.9 72.2Z" fill="#11212c" stroke="#11212c"></path><path d="M808.6 261.9L758.2 226.9L765.9 285.8Z" fill="#11212c" stroke="#11212c"></path><path d="M805.5 358.2L799.6 339.2L758.3 336.4Z" fill="#132733" stroke="#132733"></path><path d="M42.4 440.2L108.7 506.5L90.7 401.4Z" fill="#132835" stroke="#132835"></path><path d="M126.7 513.7L153.7 565.8L183.8 497.7Z" fill="#132733" stroke="#132733"></path><path d="M134.5 -25.8L211.8 0L274.6 0Z" fill="#122430" stroke="#122430"></path><path d="M274.6 0L211.8 0L248.6 29.3Z" fill="#14303d" stroke="#14303d"></path><path d="M151.8 97.3L98.1 83.5L147.8 102.5Z" fill="#14303d" stroke="#14303d"></path><path d="M57.4 182.6L60.7 202.6L87.7 182.5Z" fill="#132b38" stroke="#132b38"></path><path d="M139.4 559.5L153.7 565.8L126.7 513.7Z" fill="#142d3a" stroke="#142d3a"></path><path d="M179.5 16.3L159.7 42.2L209.2 58.3Z" fill="#132a37" stroke="#132a37"></path><path d="M153.7 565.8L188.7 600L234.8 534.5Z" fill="#132b38" stroke="#132b38"></path><path d="M222.8 605.8L142.4 626.8L318.9 629.8Z" fill="#132733" stroke="#132733"></path><path d="M153.7 565.8L187.1 600L188.7 600Z" fill="#122430" stroke="#122430"></path><path d="M188.7 600L142.4 626.8L222.8 605.8Z" fill="#11222e" stroke="#11222e"></path><path d="M108.7 506.5L118.1 527.8L126.7 513.7Z" fill="#132a37" stroke="#132a37"></path><path d="M57.4 182.6L87.7 182.5L60.4 161.8Z" fill="#122531" stroke="#122531"></path><path d="M87.7 182.5L60.7 202.6L108.4 214.5Z" fill="#142d3a" stroke="#142d3a"></path><path d="M682.8 9.2L652.8 0L629.2 48.2Z" fill="#11212c" stroke="#11212c"></path><path d="M626.5 0L652.8 0L569.1 -15.8Z" fill="#132835" stroke="#132835"></path><path d="M772.9 418.5L805.5 358.2L758.3 336.4Z" fill="#11212c" stroke="#11212c"></path><path d="M816.3 288.9L808.6 261.9L765.9 285.8Z" fill="#132a37" stroke="#132a37"></path><path d="M806.3 431.2L805.5 358.2L772.9 418.5Z" fill="#142e3b" stroke="#142e3b"></path><path d="M118.1 527.8L139.4 559.5L126.7 513.7Z" fill="#132a37" stroke="#132a37"></path><path d="M153.7 565.8L170.1 604.7L187.1 600Z" fill="#11222e" stroke="#11222e"></path><path d="M649.5 583.7L707.8 567.7L636.8 506.4Z" fill="#14303d" stroke="#14303d"></path><path d="M710.3 574.7L707.8 567.7L691.2 600Z" fill="#122430" stroke="#122430"></path><path d="M707.8 567.7L649.5 583.7L691.2 600Z" fill="#132a37" stroke="#132a37"></path><path d="M211.8 0L179.5 16.3L209.2 58.3Z" fill="#132733" stroke="#132733"></path><path d="M816.3 288.9L765.9 285.8L799.6 339.2Z" fill="#132a37" stroke="#132a37"></path><path d="M0 305.8L66.7 366.2L113.7 279.9Z" fill="#11212c" stroke="#11212c"></path><path d="M66.7 366.2L47.1 374.2L90.7 401.4Z" fill="#122531" stroke="#122531"></path><path d="M98.1 553.5L139.4 559.5L118.1 527.8Z" fill="#132a37" stroke="#132a37"></path><path d="M778.5 138.3L775.3 134.3L771.6 175.6Z" fill="#122430" stroke="#122430"></path><path d="M771.6 175.6L775.3 134.3L712.3 157.5Z" fill="#122430" stroke="#122430"></path><path d="M705.9 72.2L682.8 9.2L629.2 48.2Z" fill="#142e3b" stroke="#142e3b"></path><path d="M691.2 600L649.5 583.7L631.4 600Z" fill="#11222e" stroke="#11222e"></path><path d="M707.8 567.7L787.6 515.5L714.9 520.7Z" fill="#132a37" stroke="#132a37"></path><path d="M740.5 500.8L806.3 431.2L772.9 418.5Z" fill="#142d3a" stroke="#142d3a"></path><path d="M854.6 334.1L816.3 288.9L799.6 339.2Z" fill="#142e3b" stroke="#142e3b"></path><path d="M792.9 163.3L778.5 138.3L771.6 175.6Z" fill="#132835" stroke="#132835"></path><path d="M792.5 170.8L758.2 226.9L808.6 261.9Z" fill="#122430" stroke="#122430"></path><path d="M792.9 163.3L792.5 170.8L875.3 198.6Z" fill="#122531" stroke="#122531"></path><path d="M60.4 161.8L87.7 182.5L118.5 138.8Z" fill="#122531" stroke="#122531"></path><path d="M0 243.9L0 305.8L113.7 279.9Z" fill="#132b38" stroke="#132b38"></path><path d="M142.5 588.7L170.1 604.7L153.7 565.8Z" fill="#132835" stroke="#132835"></path><path d="M187.1 600L170.1 604.7L188.7 600Z" fill="#142e3b" stroke="#142e3b"></path><path d="M780.6 125.2L726.9 118.5L775.3 134.3Z" fill="#11212c" stroke="#11212c"></path><path d="M721.5 31.2L682.8 9.2L705.9 72.2Z" fill="#142d3a" stroke="#142d3a"></path><path d="M792.5 170.8L792.9 163.3L771.6 175.6Z" fill="#11222e" stroke="#11222e"></path><path d="M875.3 198.6L792.5 170.8L808.6 261.9Z" fill="#11222e" stroke="#11222e"></path><path d="M760.2 647.8L691.2 600L631.4 600Z" fill="#132733" stroke="#132733"></path><path d="M98.1 83.5L118.5 138.8L147.8 102.5Z" fill="#122531" stroke="#122531"></path><path d="M98.1 83.5L151.8 97.3L159.7 42.2Z" fill="#11212c" stroke="#11212c"></path><path d="M792.9 163.3L780.6 125.2L778.5 138.3Z" fill="#132a37" stroke="#132a37"></path><path d="M778.5 138.3L780.6 125.2L775.3 134.3Z" fill="#122430" stroke="#122430"></path><path d="M129.4 0L98.1 83.5L159.7 42.2Z" fill="#132b38" stroke="#132b38"></path><path d="M813.3 494.5L806.3 431.2L740.5 500.8Z" fill="#132733" stroke="#132733"></path><path d="M805.5 358.2L854.6 334.1L799.6 339.2Z" fill="#132a37" stroke="#132a37"></path><path d="M139.4 559.5L142.5 588.7L153.7 565.8Z" fill="#14303d" stroke="#14303d"></path><path d="M98.1 553.5L142.5 588.7L139.4 559.5Z" fill="#132b38" stroke="#132b38"></path><path d="M98.1 553.5L118.1 527.8L108.7 506.5Z" fill="#132733" stroke="#132733"></path><path d="M691.2 600L703.9 600L710.3 574.7Z" fill="#11212c" stroke="#11212c"></path><path d="M710.3 574.7L787.6 515.5L707.8 567.7Z" fill="#142e3b" stroke="#142e3b"></path><path d="M760.2 647.8L703.9 600L691.2 600Z" fill="#142e3b" stroke="#142e3b"></path><path d="M784.6 44.5L705.9 72.2L715.9 92.6Z" fill="#122430" stroke="#122430"></path><path d="M159.7 0L160.1 4.3L179.5 16.3Z" fill="#132b38" stroke="#132b38"></path><path d="M179.5 16.3L160.1 4.3L159.7 42.2Z" fill="#132b38" stroke="#132b38"></path><path d="M760.2 647.8L709.3 600L703.9 600Z" fill="#132b38" stroke="#132b38"></path><path d="M703.9 600L709.3 600L710.3 574.7Z" fill="#132733" stroke="#132733"></path><path d="M0 405.1L42.4 440.2L47.1 374.2Z" fill="#11222e" stroke="#11222e"></path><path d="M47.1 374.2L42.4 440.2L90.7 401.4Z" fill="#122531" stroke="#122531"></path><path d="M134.5 -25.8L159.7 0L211.8 0Z" fill="#132a37" stroke="#132a37"></path><path d="M211.8 0L159.7 0L179.5 16.3Z" fill="#14303d" stroke="#14303d"></path><path d="M160.1 4.3L144.5 0L159.7 42.2Z" fill="#132835" stroke="#132835"></path><path d="M0 514.7L98.1 553.5L108.7 506.5Z" fill="#132835" stroke="#132835"></path><path d="M777.5 600L787.6 515.5L710.3 574.7Z" fill="#142e3b" stroke="#142e3b"></path><path d="M134.5 -25.8L144.5 0L159.7 0Z" fill="#132835" stroke="#132835"></path><path d="M159.7 0L144.5 0L160.1 4.3Z" fill="#142e3b" stroke="#142e3b"></path><path d="M0 243.9L60.7 202.6L-4.6 224.1Z" fill="#11222e" stroke="#11222e"></path><path d="M0 243.9L113.7 279.9L60.7 202.6Z" fill="#11222e" stroke="#11222e"></path><path d="M89.4 600.7L142.4 626.8L142.5 588.7Z" fill="#11222e" stroke="#11222e"></path><path d="M142.5 588.7L142.4 626.8L170.1 604.7Z" fill="#122531" stroke="#122531"></path><path d="M170.1 604.7L142.4 626.8L188.7 600Z" fill="#11222e" stroke="#11222e"></path><path d="M318.9 629.8L142.4 626.8L464.3 639.8Z" fill="#132a37" stroke="#132a37"></path><path d="M862.6 400.4L854.6 334.1L805.5 358.2Z" fill="#122430" stroke="#122430"></path><path d="M900 230.6L875.3 198.6L808.6 261.9Z" fill="#132b38" stroke="#132b38"></path><path d="M842.6 78.3L784.6 44.5L780.6 125.2Z" fill="#11212c" stroke="#11212c"></path><path d="M862.6 400.4L805.5 358.2L806.3 431.2Z" fill="#132835" stroke="#132835"></path><path d="M134.5 -25.8L129.4 0L144.5 0Z" fill="#11222e" stroke="#11222e"></path><path d="M144.5 0L129.4 0L159.7 42.2Z" fill="#122430" stroke="#122430"></path><path d="M-4.6 224.1L57.4 182.6L0 128.2Z" fill="#14303d" stroke="#14303d"></path><path d="M831.3 530.8L813.3 494.5L787.6 515.5Z" fill="#142e3b" stroke="#142e3b"></path><path d="M787.6 515.5L813.3 494.5L740.5 500.8Z" fill="#142e3b" stroke="#142e3b"></path><path d="M0 305.8L0 348.2L66.7 366.2Z" fill="#122430" stroke="#122430"></path><path d="M0 348.2L0 353.4L47.1 374.2Z" fill="#132835" stroke="#132835"></path><path d="M813.3 494.5L815.9 491.8L806.3 431.2Z" fill="#142e3b" stroke="#142e3b"></path><path d="M-4.6 224.1L60.7 202.6L57.4 182.6Z" fill="#142e3b" stroke="#142e3b"></path><path d="M57.4 182.6L60.4 161.8L0 128.2Z" fill="#142e3b" stroke="#142e3b"></path><path d="M0 353.4L0 405.1L47.1 374.2Z" fill="#122430" stroke="#122430"></path><path d="M0 546.5L89.4 600.7L98.1 553.5Z" fill="#11212c" stroke="#11212c"></path><path d="M98.1 553.5L89.4 600.7L142.5 588.7Z" fill="#132733" stroke="#132733"></path><path d="M42.7 75.3L60.4 161.8L98.1 83.5Z" fill="#142e3b" stroke="#142e3b"></path><path d="M0 243.9L-47.6 299.9L0 305.8Z" fill="#11222e" stroke="#11222e"></path><path d="M0 305.8L-47.6 299.9L0 348.2Z" fill="#132733" stroke="#132733"></path><path d="M0 348.2L-47.6 299.9L0 353.4Z" fill="#122430" stroke="#122430"></path><path d="M0 353.4L-47.6 299.9L0 405.1Z" fill="#122430" stroke="#122430"></path><path d="M569.1 -15.8L134.5 -25.8L375.2 0Z" fill="#142e3b" stroke="#142e3b"></path><path d="M98.1 0L56.4 59.3L98.1 83.5Z" fill="#132b38" stroke="#132b38"></path><path d="M780.6 125.2L784.6 44.5L715.9 92.6Z" fill="#11222e" stroke="#11222e"></path><path d="M721.5 31.2L761.9 0L682.8 9.2Z" fill="#132a37" stroke="#132a37"></path><path d="M842.6 78.3L780.6 125.2L792.9 163.3Z" fill="#132835" stroke="#132835"></path><path d="M864.6 464.7L862.6 400.4L806.3 431.2Z" fill="#142d3a" stroke="#142d3a"></path><path d="M98.1 0L98.1 83.5L129.4 0Z" fill="#132733" stroke="#132733"></path><path d="M0 505.8L108.7 506.5L42.4 440.2Z" fill="#142d3a" stroke="#142d3a"></path><path d="M56.4 59.3L42.7 75.3L98.1 83.5Z" fill="#132733" stroke="#132733"></path><path d="M134.5 -25.8L98.1 0L129.4 0Z" fill="#11212c" stroke="#11212c"></path><path d="M56.4 59.3L36.4 29.2L42.7 75.3Z" fill="#122531" stroke="#122531"></path><path d="M894.3 370.1L879.6 321.8L854.6 334.1Z" fill="#11222e" stroke="#11222e"></path><path d="M854.6 334.1L879.6 321.8L816.3 288.9Z" fill="#132835" stroke="#132835"></path><path d="M784.6 44.5L761.9 0L721.5 31.2Z" fill="#132835" stroke="#132835"></path><path d="M682.8 9.2L761.9 0L652.8 0Z" fill="#14303d" stroke="#14303d"></path><path d="M652.8 0L761.9 0L569.1 -15.8Z" fill="#122430" stroke="#122430"></path><path d="M760.2 647.8L777.5 600L709.3 600Z" fill="#11212c" stroke="#11212c"></path><path d="M709.3 600L777.5 600L710.3 574.7Z" fill="#132733" stroke="#132733"></path><path d="M813.3 494.5L831.3 530.8L815.9 491.8Z" fill="#14303d" stroke="#14303d"></path><path d="M815.9 491.8L864.6 464.7L806.3 431.2Z" fill="#122531" stroke="#122531"></path><path d="M900 230.6L808.6 261.9L816.3 288.9Z" fill="#142e3b" stroke="#142e3b"></path><path d="M784.6 44.5L856.6 0L761.9 0Z" fill="#132733" stroke="#132733"></path><path d="M777.5 600L831.3 530.8L787.6 515.5Z" fill="#122430" stroke="#122430"></path><path d="M0 127.6L60.4 161.8L42.7 75.3Z" fill="#11222e" stroke="#11222e"></path><path d="M0 127.6L0 128.2L60.4 161.8Z" fill="#142d3a" stroke="#142d3a"></path><path d="M0 61.5L0 127.6L42.7 75.3Z" fill="#142d3a" stroke="#142d3a"></path><path d="M0 128.2L-47.6 299.9L-4.6 224.1Z" fill="#122531" stroke="#122531"></path><path d="M831.3 530.8L864.6 464.7L815.9 491.8Z" fill="#122430" stroke="#122430"></path><path d="M862.6 400.4L894.3 370.1L854.6 334.1Z" fill="#11212c" stroke="#11212c"></path><path d="M0 405.1L0 505.8L42.4 440.2Z" fill="#132b38" stroke="#132b38"></path><path d="M-47.6 299.9L0 505.8L0 405.1Z" fill="#132b38" stroke="#132b38"></path><path d="M900 393.5L894.3 370.1L862.6 400.4Z" fill="#132a37" stroke="#132a37"></path><path d="M879.6 321.8L900 297.9L816.3 288.9Z" fill="#142e3b" stroke="#142e3b"></path><path d="M900 364.4L900 314.2L879.6 321.8Z" fill="#122430" stroke="#122430"></path><path d="M900 314.2L900 301.1L879.6 321.8Z" fill="#142e3b" stroke="#142e3b"></path><path d="M900 301.1L900 297.9L879.6 321.8Z" fill="#132b38" stroke="#132b38"></path><path d="M-47.6 299.9L0 514.7L0 505.8Z" fill="#11222e" stroke="#11222e"></path><path d="M0 505.8L0 514.7L108.7 506.5Z" fill="#11222e" stroke="#11222e"></path><path d="M900 161.3L842.6 78.3L792.9 163.3Z" fill="#11212c" stroke="#11212c"></path><path d="M0 127.6L-47.6 299.9L0 128.2Z" fill="#142e3b" stroke="#142e3b"></path><path d="M-4.6 224.1L-47.6 299.9L0 243.9Z" fill="#132b38" stroke="#132b38"></path><path d="M900 512.8L893.6 510.8L900 593.7Z" fill="#11212c" stroke="#11212c"></path><path d="M535.1 641.8L760.2 647.8L631.4 600Z" fill="#122531" stroke="#122531"></path><path d="M900 393.5L900 364.4L894.3 370.1Z" fill="#132b38" stroke="#132b38"></path><path d="M894.3 370.1L900 364.4L879.6 321.8Z" fill="#142d3a" stroke="#142d3a"></path><path d="M900 297.9L900 230.6L816.3 288.9Z" fill="#132a37" stroke="#132a37"></path><path d="M875.3 198.6L900 161.3L792.9 163.3Z" fill="#142d3a" stroke="#142d3a"></path><path d="M900 230.6L900 225.8L875.3 198.6Z" fill="#122531" stroke="#122531"></path><path d="M98.1 0L36.4 29.2L56.4 59.3Z" fill="#132b38" stroke="#132b38"></path><path d="M0 18.3L36.4 29.2L0 0Z" fill="#132a37" stroke="#132a37"></path><path d="M864.6 464.7L900 393.5L862.6 400.4Z" fill="#122430" stroke="#122430"></path><path d="M900 225.8L900 211.5L875.3 198.6Z" fill="#11212c" stroke="#11212c"></path><path d="M900 60.2L843.3 63.2L842.6 78.3Z" fill="#132835" stroke="#132835"></path><path d="M842.6 78.3L843.3 63.2L784.6 44.5Z" fill="#132b38" stroke="#132b38"></path><path d="M-47.6 299.9L0 546.5L0 514.7Z" fill="#14303d" stroke="#14303d"></path><path d="M0 514.7L0 546.5L98.1 553.5Z" fill="#11212c" stroke="#11212c"></path><path d="M36.4 29.2L0 61.5L42.7 75.3Z" fill="#14303d" stroke="#14303d"></path><path d="M0 127.6L0 61.5L-47.6 299.9Z" fill="#142d3a" stroke="#142d3a"></path><path d="M900 211.5L900 161.3L875.3 198.6Z" fill="#132733" stroke="#132733"></path><path d="M831.3 530.8L893.6 510.8L864.6 464.7Z" fill="#142d3a" stroke="#142d3a"></path><path d="M864.6 464.7L900 512.8L900 393.5Z" fill="#142e3b" stroke="#142e3b"></path><path d="M893.6 510.8L831.3 530.8L879.6 600Z" fill="#122531" stroke="#122531"></path><path d="M0 600L3.4 600L0 546.5Z" fill="#132733" stroke="#132733"></path><path d="M0 546.5L3.4 600L89.4 600.7Z" fill="#11212c" stroke="#11212c"></path><path d="M89.4 600.7L3.4 600L142.4 626.8Z" fill="#122531" stroke="#122531"></path><path d="M879.6 600L831.3 530.8L777.5 600Z" fill="#132a37" stroke="#132a37"></path><path d="M893.6 510.8L900 512.8L864.6 464.7Z" fill="#132b38" stroke="#132b38"></path><path d="M0 0L36.4 29.2L98.1 0Z" fill="#142e3b" stroke="#142e3b"></path><path d="M36.4 29.2L0 18.3L0 61.5Z" fill="#122430" stroke="#122430"></path><path d="M0 61.5L0 18.3L-47.6 299.9Z" fill="#122531" stroke="#122531"></path><path d="M-47.6 299.9L0 600L0 546.5Z" fill="#132b38" stroke="#132b38"></path><path d="M3.4 600L0 600L142.4 626.8Z" fill="#122430" stroke="#122430"></path><path d="M134.5 -25.8L0 0L98.1 0Z" fill="#142d3a" stroke="#142d3a"></path><path d="M0 18.3L0 0L-47.6 299.9Z" fill="#11212c" stroke="#11212c"></path><path d="M900 60.2L856.6 0L843.3 63.2Z" fill="#142d3a" stroke="#142d3a"></path><path d="M843.3 63.2L856.6 0L784.6 44.5Z" fill="#132a37" stroke="#132a37"></path><path d="M761.9 0L856.6 0L569.1 -15.8Z" fill="#11222e" stroke="#11222e"></path><path d="M900 161.3L900 60.2L842.6 78.3Z" fill="#132835" stroke="#132835"></path><path d="M760.2 647.8L879.6 600L777.5 600Z" fill="#142e3b" stroke="#142e3b"></path><path d="M900 600L900 593.7L879.6 600Z" fill="#132b38" stroke="#132b38"></path><path d="M879.6 600L900 593.7L893.6 510.8Z" fill="#132b38" stroke="#132b38"></path><path d="M760.2 647.8L900 600L879.6 600Z" fill="#142e3b" stroke="#142e3b"></path><path d="M900 60.2L900 0L856.6 0Z" fill="#132b38" stroke="#132b38"></path><path d="M856.6 0L900 0L569.1 -15.8Z" fill="#132733" stroke="#132733"></path><path d="M900 60.2L900.3 0L900 0Z" fill="#122531" stroke="#122531"></path><path d="M900 0L900.3 0L569.1 -15.8Z" fill="#132a37" stroke="#132a37"></path><path d="M900 161.3L900.3 0L900 60.2Z" fill="#132835" stroke="#132835"></path><path d="M900 211.5L900.3 0L900 161.3Z" fill="#132b38" stroke="#132b38"></path><path d="M900 225.8L900.3 0L900 211.5Z" fill="#132b38" stroke="#132b38"></path><path d="M900 230.6L900.3 0L900 225.8Z" fill="#132733" stroke="#132733"></path><path d="M900 297.9L900.3 0L900 230.6Z" fill="#132b38" stroke="#132b38"></path><path d="M900 301.1L900.3 0L900 297.9Z" fill="#122531" stroke="#122531"></path><path d="M900 314.2L900.3 0L900 301.1Z" fill="#132835" stroke="#132835"></path><path d="M900 364.4L900.3 0L900 314.2Z" fill="#132b38" stroke="#132b38"></path><path d="M900 393.5L900.3 0L900 364.4Z" fill="#11212c" stroke="#11212c"></path><path d="M900 512.8L900.3 0L900 393.5Z" fill="#142e3b" stroke="#142e3b"></path><path d="M900 593.7L900.3 0L900 512.8Z" fill="#11222e" stroke="#11222e"></path><path d="M900 600L900.3 0L900 593.7Z" fill="#14303d" stroke="#14303d"></path></g></svg>