<svg id="visual" viewBox="0 0 900 600" width="900" height="600" xmlns="http://www.w3.org/2000/svg" xmlns:xlink="http://www.w3.org/1999/xlink" version="1.1"><g stroke-width="1" stroke-linejoin="bevel"><path d="M476 335L418 377L513 414Z" fill="#297ea6" stroke="#297ea6"></path><path d="M418 377L432 487L513 414Z" fill="#00101c" stroke="#00101c"></path><path d="M476 335L385 290L418 377Z" fill="#112e42" stroke="#112e42"></path><path d="M418 377L313 478L432 487Z" fill="#00101c" stroke="#00101c"></path><path d="M432 487L462 525L513 414Z" fill="#19435d" stroke="#19435d"></path><path d="M634 401L603 336L513 414Z" fill="#1d4e6b" stroke="#1d4e6b"></path><path d="M513 414L603 336L476 335Z" fill="#15384f" stroke="#15384f"></path><path d="M476 335L503 217L385 290Z" fill="#277297" stroke="#277297"></path><path d="M631 528L634 401L513 414Z" fill="#246688" stroke="#246688"></path><path d="M572 238L503 217L476 335Z" fill="#19435d" stroke="#19435d"></path><path d="M338 233L306 318L385 290Z" fill="#081a28" stroke="#081a28"></path><path d="M385 290L306 318L418 377Z" fill="#081a28" stroke="#081a28"></path><path d="M668 303L572 238L603 336Z" fill="#19435d" stroke="#19435d"></path><path d="M603 336L572 238L476 335Z" fill="#205a7a" stroke="#205a7a"></path><path d="M283 422L313 478L418 377Z" fill="#15384f" stroke="#15384f"></path><path d="M432 487L398 600L462 525Z" fill="#112e42" stroke="#112e42"></path><path d="M503 217L389 215L385 290Z" fill="#112e42" stroke="#112e42"></path><path d="M306 318L283 422L418 377Z" fill="#1d4e6b" stroke="#1d4e6b"></path><path d="M389 215L338 233L385 290Z" fill="#081a28" stroke="#081a28"></path><path d="M398 600L481 600L462 525Z" fill="#246688" stroke="#246688"></path><path d="M462 525L631 528L513 414Z" fill="#205a7a" stroke="#205a7a"></path><path d="M481 600L631 528L462 525Z" fill="#15384f" stroke="#15384f"></path><path d="M634 401L668 303L603 336Z" fill="#19435d" stroke="#19435d"></path><path d="M718 408L668 303L634 401Z" fill="#205a7a" stroke="#205a7a"></path><path d="M313 478L398 600L432 487Z" fill="#246688" stroke="#246688"></path><path d="M661 600L678 519L631 528Z" fill="#15384f" stroke="#15384f"></path><path d="M631 528L678 519L634 401Z" fill="#277297" stroke="#277297"></path><path d="M678 519L718 408L634 401Z" fill="#277297" stroke="#277297"></path><path d="M313 478L324 600L398 600Z" fill="#15384f" stroke="#15384f"></path><path d="M206 600L324 600L313 478Z" fill="#081a28" stroke="#081a28"></path><path d="M481 600L630 600L631 528Z" fill="#277297" stroke="#277297"></path><path d="M187 414L209 469L283 422Z" fill="#081a28" stroke="#081a28"></path><path d="M283 422L209 469L313 478Z" fill="#205a7a" stroke="#205a7a"></path><path d="M187 414L283 422L306 318Z" fill="#205a7a" stroke="#205a7a"></path><path d="M178 291L187 414L306 318Z" fill="#205a7a" stroke="#205a7a"></path><path d="M630 600L661 600L631 528Z" fill="#277297" stroke="#277297"></path><path d="M799 374L767 336L718 408Z" fill="#00101c" stroke="#00101c"></path><path d="M767 336L730 237L668 303Z" fill="#0c2435" stroke="#0c2435"></path><path d="M668 303L730 237L572 238Z" fill="#297ea6" stroke="#297ea6"></path><path d="M490 60L389 81L503 217Z" fill="#00101c" stroke="#00101c"></path><path d="M799 374L718 408L836 481Z" fill="#205a7a" stroke="#205a7a"></path><path d="M718 408L767 336L668 303Z" fill="#15384f" stroke="#15384f"></path><path d="M198 201L178 291L306 318Z" fill="#246688" stroke="#246688"></path><path d="M389 215L275 90L338 233Z" fill="#1d4e6b" stroke="#1d4e6b"></path><path d="M338 233L198 201L306 318Z" fill="#112e42" stroke="#112e42"></path><path d="M503 217L389 81L389 215Z" fill="#15384f" stroke="#15384f"></path><path d="M490 60L503 217L591 75Z" fill="#205a7a" stroke="#205a7a"></path><path d="M591 75L503 217L572 238Z" fill="#15384f" stroke="#15384f"></path><path d="M275 90L198 201L338 233Z" fill="#297ea6" stroke="#297ea6"></path><path d="M836 481L718 408L678 519Z" fill="#297ea6" stroke="#297ea6"></path><path d="M767 336L789 187L730 237Z" fill="#00101c" stroke="#00101c"></path><path d="M667 66L591 75L572 238Z" fill="#19435d" stroke="#19435d"></path><path d="M209 469L206 600L313 478Z" fill="#297ea6" stroke="#297ea6"></path><path d="M94 600L206 600L209 469Z" fill="#297ea6" stroke="#297ea6"></path><path d="M198 201L130 302L178 291Z" fill="#205a7a" stroke="#205a7a"></path><path d="M178 291L130 302L187 414Z" fill="#277297" stroke="#277297"></path><path d="M187 414L75 470L209 469Z" fill="#205a7a" stroke="#205a7a"></path><path d="M314 0L275 90L389 81Z" fill="#297ea6" stroke="#297ea6"></path><path d="M389 81L275 90L389 215Z" fill="#081a28" stroke="#081a28"></path><path d="M130 302L94 389L187 414Z" fill="#205a7a" stroke="#205a7a"></path><path d="M792 128L667 66L730 237Z" fill="#246688" stroke="#246688"></path><path d="M730 237L667 66L572 238Z" fill="#081a28" stroke="#081a28"></path><path d="M591 75L483 0L490 60Z" fill="#205a7a" stroke="#205a7a"></path><path d="M900 300L789 187L767 336Z" fill="#112e42" stroke="#112e42"></path><path d="M816 600L836 481L678 519Z" fill="#00101c" stroke="#00101c"></path><path d="M799 374L900 300L767 336Z" fill="#15384f" stroke="#15384f"></path><path d="M616 0L483 0L591 75Z" fill="#15384f" stroke="#15384f"></path><path d="M490 60L392 0L389 81Z" fill="#19435d" stroke="#19435d"></path><path d="M483 0L392 0L490 60Z" fill="#00101c" stroke="#00101c"></path><path d="M314 0L215 74L275 90Z" fill="#00101c" stroke="#00101c"></path><path d="M275 90L215 74L198 201Z" fill="#15384f" stroke="#15384f"></path><path d="M198 201L96 173L130 302Z" fill="#15384f" stroke="#15384f"></path><path d="M0 291L0 394L94 389Z" fill="#19435d" stroke="#19435d"></path><path d="M94 389L75 470L187 414Z" fill="#112e42" stroke="#112e42"></path><path d="M661 600L816 600L678 519Z" fill="#277297" stroke="#277297"></path><path d="M667 66L616 0L591 75Z" fill="#15384f" stroke="#15384f"></path><path d="M678 0L616 0L667 66Z" fill="#297ea6" stroke="#297ea6"></path><path d="M900 235L792 128L789 187Z" fill="#277297" stroke="#277297"></path><path d="M789 187L792 128L730 237Z" fill="#297ea6" stroke="#297ea6"></path><path d="M392 0L314 0L389 81Z" fill="#277297" stroke="#277297"></path><path d="M110 118L96 173L198 201Z" fill="#19435d" stroke="#19435d"></path><path d="M94 389L0 394L75 470Z" fill="#112e42" stroke="#112e42"></path><path d="M75 470L94 600L209 469Z" fill="#277297" stroke="#277297"></path><path d="M900 515L900 422L836 481Z" fill="#246688" stroke="#246688"></path><path d="M836 481L900 422L799 374Z" fill="#1d4e6b" stroke="#1d4e6b"></path><path d="M801 0L678 0L667 66Z" fill="#246688" stroke="#246688"></path><path d="M900 422L900 300L799 374Z" fill="#00101c" stroke="#00101c"></path><path d="M215 74L110 118L198 201Z" fill="#205a7a" stroke="#205a7a"></path><path d="M180 0L110 118L215 74Z" fill="#205a7a" stroke="#205a7a"></path><path d="M816 600L900 515L836 481Z" fill="#112e42" stroke="#112e42"></path><path d="M900 300L900 235L789 187Z" fill="#277297" stroke="#277297"></path><path d="M792 128L801 0L667 66Z" fill="#297ea6" stroke="#297ea6"></path><path d="M0 291L94 389L130 302Z" fill="#0c2435" stroke="#0c2435"></path><path d="M75 470L0 600L94 600Z" fill="#081a28" stroke="#081a28"></path><path d="M0 291L130 302L0 231Z" fill="#277297" stroke="#277297"></path><path d="M0 394L0 468L75 470Z" fill="#205a7a" stroke="#205a7a"></path><path d="M0 231L130 302L96 173Z" fill="#205a7a" stroke="#205a7a"></path><path d="M816 600L900 600L900 515Z" fill="#112e42" stroke="#112e42"></path><path d="M314 0L180 0L215 74Z" fill="#15384f" stroke="#15384f"></path><path d="M0 87L0 231L96 173Z" fill="#081a28" stroke="#081a28"></path><path d="M0 87L96 173L110 118Z" fill="#112e42" stroke="#112e42"></path><path d="M900 60L801 0L792 128Z" fill="#297ea6" stroke="#297ea6"></path><path d="M0 468L0 600L75 470Z" fill="#1d4e6b" stroke="#1d4e6b"></path><path d="M180 0L112 0L110 118Z" fill="#15384f" stroke="#15384f"></path><path d="M900 235L900 60L792 128Z" fill="#246688" stroke="#246688"></path><path d="M112 0L0 87L110 118Z" fill="#1d4e6b" stroke="#1d4e6b"></path><path d="M900 60L900 0L801 0Z" fill="#297ea6" stroke="#297ea6"></path><path d="M112 0L0 0L0 87Z" fill="#15384f" stroke="#15384f"></path></g></svg>